<?xml version="1.0" encoding="UTF-8" standalone="no"?>
<!-- Created with Inkscape (http://www.inkscape.org/) -->

<svg
   xmlns:dc="http://purl.org/dc/elements/1.1/"
   xmlns:cc="http://creativecommons.org/ns#"
   xmlns:rdf="http://www.w3.org/1999/02/22-rdf-syntax-ns#"
   xmlns:svg="http://www.w3.org/2000/svg"
   xmlns="http://www.w3.org/2000/svg"
   xmlns:xlink="http://www.w3.org/1999/xlink"
   xmlns:sodipodi="http://sodipodi.sourceforge.net/DTD/sodipodi-0.dtd"
   xmlns:inkscape="http://www.inkscape.org/namespaces/inkscape"
   width="128"
   height="128"
   id="svg2"
   version="1.1"
   inkscape:version="0.48.2 r9819"
   sodipodi:docname="fetch Kopie.svg">
  <defs
     id="defs4">
    <linearGradient
       id="linearGradient3792">
      <stop
         style="stop-color:#7245ff;stop-opacity:1;"
         offset="0"
         id="stop3794" />
      <stop
         style="stop-color:#000000;stop-opacity:1"
         offset="1"
         id="stop3796" />
    </linearGradient>
    <linearGradient
       id="linearGradient3765">
      <stop
         style="stop-color:#00e129;stop-opacity:1;"
         offset="0"
         id="stop3767" />
      <stop
         style="stop-color:#bfff4a;stop-opacity:0.71739131;"
         offset="1"
         id="stop3769" />
    </linearGradient>
    <linearGradient
       inkscape:collect="always"
       xlink:href="#linearGradient5495"
       id="linearGradient6110"
       gradientUnits="userSpaceOnUse"
       gradientTransform="matrix(1.1818182,0,0,1.1818182,-30.64896,-69.394391)"
       spreadMethod="reflect"
       x1="269.96979"
       y1="511.96591"
       x2="286.62845"
       y2="511.96591" />
    <linearGradient
       id="linearGradient5495"
       inkscape:collect="always">
      <stop
         id="stop5497"
         offset="0"
         style="stop-color:#c6c6c6;stop-opacity:1" />
      <stop
         style="stop-color:#e3e3e3;stop-opacity:1"
         offset="0.20484632"
         id="stop5501" />
      <stop
         id="stop5499"
         offset="1"
         style="stop-color:#a5a5a8;stop-opacity:1" />
    </linearGradient>
    <linearGradient
       inkscape:collect="always"
       xlink:href="#linearGradient5466"
       id="linearGradient6112"
       gradientUnits="userSpaceOnUse"
       x1="282.35706"
       y1="518.55707"
       x2="286.6308"
       y2="527.33539" />
    <linearGradient
       inkscape:collect="always"
       id="linearGradient5466">
      <stop
         style="stop-color:#e3e3e3;stop-opacity:1"
         offset="0"
         id="stop5468" />
      <stop
         style="stop-color:#a5a5a8;stop-opacity:1"
         offset="1"
         id="stop5470" />
    </linearGradient>
    <linearGradient
       inkscape:collect="always"
       xlink:href="#linearGradient6035"
       id="linearGradient6114"
       gradientUnits="userSpaceOnUse"
       gradientTransform="translate(0,0.25)"
       spreadMethod="reflect"
       x1="308.5"
       y1="522.61218"
       x2="327.78125"
       y2="520.32812" />
    <linearGradient
       id="linearGradient6035">
      <stop
         style="stop-color:#ffffff;stop-opacity:1;"
         offset="0"
         id="stop6037" />
      <stop
         style="stop-color:#ffffff;stop-opacity:0;"
         offset="1"
         id="stop6039" />
    </linearGradient>
    <linearGradient
       inkscape:collect="always"
       xlink:href="#linearGradient6035"
       id="linearGradient6116"
       gradientUnits="userSpaceOnUse"
       gradientTransform="translate(0,12)"
       spreadMethod="reflect"
       x1="308.5"
       y1="522.61218"
       x2="327.78125"
       y2="520.32812" />
    <linearGradient
       id="linearGradient3057">
      <stop
         style="stop-color:#ffffff;stop-opacity:1;"
         offset="0"
         id="stop3059" />
      <stop
         style="stop-color:#ffffff;stop-opacity:0;"
         offset="1"
         id="stop3061" />
    </linearGradient>
    <linearGradient
       inkscape:collect="always"
       xlink:href="#linearGradient6035"
       id="linearGradient6118"
       gradientUnits="userSpaceOnUse"
       gradientTransform="translate(0,22)"
       spreadMethod="reflect"
       x1="308.5"
       y1="522.61218"
       x2="327.78125"
       y2="520.32812" />
    <linearGradient
       id="linearGradient3064">
      <stop
         style="stop-color:#ffffff;stop-opacity:1;"
         offset="0"
         id="stop3066" />
      <stop
         style="stop-color:#ffffff;stop-opacity:0;"
         offset="1"
         id="stop3068" />
    </linearGradient>
    <linearGradient
       inkscape:collect="always"
       xlink:href="#linearGradient3792"
       id="linearGradient3798"
       x1="49.472885"
       y1="999.97968"
       x2="82.497742"
       y2="991.48053"
       gradientUnits="userSpaceOnUse"
       gradientTransform="matrix(0.84527588,0,0,1.1054567,-30.327024,-88.45248)" />
    <filter
       inkscape:collect="always"
       id="filter3864"
       x="-0.049766299"
       width="1.0995326"
       y="-0.14929889"
       height="1.2985978">
      <feGaussianBlur
         inkscape:collect="always"
         stdDeviation="0.69123385"
         id="feGaussianBlur3866" />
    </filter>
  </defs>
  <sodipodi:namedview
     id="base"
     pagecolor="#ffffff"
     bordercolor="#666666"
     borderopacity="1.0"
     inkscape:pageopacity="0.0"
     inkscape:pageshadow="2"
     inkscape:zoom="2.56"
     inkscape:cx="53.33413"
     inkscape:cy="44.817631"
     inkscape:document-units="px"
     inkscape:current-layer="layer1"
     showgrid="false"
     inkscape:window-width="1280"
     inkscape:window-height="752"
     inkscape:window-x="0"
     inkscape:window-y="0"
     inkscape:window-maximized="1"
     showguides="false" />
  <metadata
     id="metadata7">
    <rdf:RDF>
      <cc:Work
         rdf:about="">
        <dc:format>image/svg+xml</dc:format>
        <dc:type
           rdf:resource="http://purl.org/dc/dcmitype/StillImage" />
        <dc:title />
      </cc:Work>
    </rdf:RDF>
  </metadata>
  <g
     inkscape:label="Ebene 1"
     inkscape:groupmode="layer"
     id="layer1"
     transform="translate(0,-924.36218)">
    <g
       id="g6097"
       transform="matrix(2.5761909,0,0,2.5798801,-728.35929,-389.84763)">
      <path
         sodipodi:type="arc"
         style="fill:#a5a3f8;fill-opacity:1;stroke:none;filter:url(#filter3864)"
         id="path6079"
         sodipodi:cx="286.6308"
         sodipodi:cy="521.77954"
         sodipodi:rx="16.667517"
         sodipodi:ry="5.5558391"
         d="m 303.29832,521.77954 a 16.667517,5.5558391 0 1 1 -33.33504,0 16.667517,5.5558391 0 1 1 33.33504,0 z"
         transform="matrix(1.3228907,0,0,1.3035169,-71.16048,-130.16484)" />
      <path
         inkscape:connector-curvature="0"
         sodipodi:nodetypes="cccssscccc"
         id="path5488"
         d="m 288.40625,517.5 0,30.09191 0.125,0 c -0.0806,0.24126 -0.125,0.47032 -0.125,0.71875 0,3.6263 8.80861,6.5625 19.6875,6.5625 10.87889,0 19.6875,-2.9362 19.6875,-6.5625 0,-0.24879 -0.0442,-0.47715 -0.125,-0.71875 l 0.125,0 0,-30.09191 -39.375,0 z"
         style="fill:url(#linearGradient6110);fill-opacity:1;stroke:none" />
      <path
         transform="matrix(1.1818182,0,0,1.1818182,-30.64896,-99.394391)"
         d="m 303.29832,521.77954 c 0,3.06841 -7.46231,5.55584 -16.66752,5.55584 -9.20522,0 -16.66752,-2.48743 -16.66752,-5.55584 0,-3.0684 7.4623,-5.55584 16.66752,-5.55584 9.20521,0 16.66752,2.48744 16.66752,5.55584 z"
         sodipodi:ry="5.5558391"
         sodipodi:rx="16.667517"
         sodipodi:cy="521.77954"
         sodipodi:cx="286.6308"
         id="path5460"
         style="fill:url(#linearGradient6112);fill-opacity:1;stroke:none"
         sodipodi:type="arc" />
      <path
         inkscape:connector-curvature="0"
         id="path6026"
         d="m 288.375,539.09375 c 0.14735,3.58398 8.93182,6.46875 19.71875,6.46875 10.75628,0 19.4918,-2.86766 19.6875,-6.4375 -3.45152,2.93589 -10.95919,4.96875 -19.6875,4.96875 -8.74612,0 -16.27686,-2.05444 -19.71875,-5 z"
         style="fill:#565656;fill-opacity:1;stroke:none" />
      <path
         inkscape:connector-curvature="0"
         id="path6030"
         d="m 288.375,517.34375 c 0.14735,3.58398 8.93182,6.46875 19.71875,6.46875 10.75628,0 19.4918,-2.86766 19.6875,-6.4375 -0.21572,0.18349 -0.44078,0.35509 -0.6875,0.53125 -0.009,0.0117 -0.0216,0.0196 -0.0312,0.0312 -2.29214,2.77744 -9.90349,4.8125 -18.96875,4.8125 -9.12203,0 -16.78563,-2.07074 -19.03125,-4.875 -0.0249,-0.0179 -0.038,-0.0446 -0.0625,-0.0625 -0.21872,-0.15969 -0.43159,-0.30323 -0.625,-0.46875 z"
         style="fill:url(#linearGradient6114);fill-opacity:1;stroke:none" />
      <g
         id="g6071">
        <g
           transform="translate(0,-0.52315203)"
           id="g6067">
          <path
             inkscape:connector-curvature="0"
             style="fill:#565656;fill-opacity:1;stroke:none"
             d="m 288.375,529.09375 c 0.14735,3.58398 8.93182,6.46875 19.71875,6.46875 10.75628,0 19.4918,-2.86766 19.6875,-6.4375 -3.45152,2.93589 -10.95919,4.96875 -19.6875,4.96875 -8.74612,0 -16.27686,-2.05444 -19.71875,-5 z"
             id="path6022" />
          <path
             inkscape:connector-curvature="0"
             id="path6043"
             d="m 288.375,529.09375 c 0.14735,3.58398 8.93182,6.46875 19.71875,6.46875 10.75628,0 19.4918,-2.86766 19.6875,-6.4375 -0.0497,0.0422 -0.10543,0.0838 -0.15625,0.125 -1.24216,3.22677 -9.51064,5.71875 -19.53125,5.71875 -10.11275,0 -18.46774,-2.51121 -19.59375,-5.78125 -0.0401,-0.0317 -0.0863,-0.0607 -0.125,-0.0937 z"
             style="fill:url(#linearGradient6116);fill-opacity:1;stroke:none" />
        </g>
        <path
           inkscape:connector-curvature="0"
           id="path6054"
           d="m 288.375,539.09375 c 0.14735,3.58398 8.93182,6.46875 19.71875,6.46875 10.75628,0 19.4918,-2.86766 19.6875,-6.4375 -0.0497,0.0422 -0.10543,0.0838 -0.15625,0.125 -1.24216,3.22677 -9.51064,5.71875 -19.53125,5.71875 -10.11275,0 -18.46774,-2.51121 -19.59375,-5.78125 -0.0401,-0.0317 -0.0863,-0.0607 -0.125,-0.0937 z"
           style="fill:url(#linearGradient6118);fill-opacity:1;stroke:none" />
      </g>
      <path
         inkscape:connector-curvature="0"
         id="path6060"
         d="m 288.5,549.9375 c 1.12601,3.27004 9.481,5.78125 19.59375,5.78125 10.02061,0 18.28909,-2.49198 19.53125,-5.71875 -3.51634,2.86779 -10.92856,4.84375 -19.53125,4.84375 -8.64783,0 -16.10003,-2.01374 -19.59375,-4.90625 z"
         style="fill:#565656;fill-opacity:1;stroke:none" />
    </g>
    <path
       style="fill:url(#linearGradient3798);fill-opacity:1;stroke:none"
       d="M 1.6790473,1049.8558 C -1.8389222,988.25867 39.246307,994.05718 39.246307,994.05718 l -0.005,-15.9894 24.606243,27.67282 -23.770359,27.0412 -0.224725,-16.788 c 0,0 -28.216467,-10.1831 -38.1734923,33.862 z"
       id="path3022"
       inkscape:connector-curvature="0"
       sodipodi:nodetypes="cccccccc" />
  </g>
</svg>
